<?xml version="1.0" encoding="UTF-8"?>
<svg id="Layer_1" data-name="Layer 1" xmlns="http://www.w3.org/2000/svg" viewBox="0 0 298 298">
  <defs>
    <style>
      .cls-1 {
        fill: #030303;
      }

      .cls-2 {
        fill: none;
        stroke: #010101;
        stroke-miterlimit: 10;
        stroke-width: 10px;
      }
    </style>
  </defs>
  <g>
    <path class="cls-1" d="M37.07,190.81c4.94,36.77,19.16,55.62,42.64,55.62,19.47,0,33.37-16.69,33.37-40.17,0-20.7-7.11-30.59-33.99-47.28-37.7-23.17-46.35-34.61-46.35-61.8,0-31.21,19.47-52.84,47.58-52.84,13.6,0,23.48,4.94,32.13,15.76l7.11-16.99h4.63v56.85h-6.8c-5.87-32.14-16.69-46.35-35.53-46.35-17.3,0-30.28,15.45-30.28,36.46,0,18.85,4.63,24.72,38.32,46.35,10.51,7.11,18.85,13.29,24.41,17.92,12.05,10.81,17.92,25.34,17.92,43.88,0,34.3-20.39,57.78-49.75,57.78-15.14,0-27.19-5.25-38.93-17.61l-8.65,19.47h-4.63v-67.05h6.8Z"/>
    <path class="cls-1" d="M269.73,183.71c-1.54,46.04-21.94,73.54-54.38,73.54-39.55,0-65.81-42.33-65.81-106.6s26.26-107.22,67.05-107.22c16.38,0,27.81,5.25,38.01,17.92l8.34-17.3h4.94v60.56h-6.8c-6.8-35.22-20.08-51.29-41.71-51.29-29.35,0-45.42,34.3-45.42,97.95,0,58.4,16.69,92.08,45.11,92.08,24.41,0,39.55-21.94,41.1-59.64h9.58Z"/>
  </g>
  <rect class="cls-2" x="5" y="5" width="288" height="288"/>
</svg>